#define fav_width 48
#define fav_height 48
static unsigned short fav_bits[] = {
   0x0000, 0x0000, 0x0000, 0x0000, 0x0000, 0x0000, 0x0000, 0x0000, 0x0000,
   0x0320, 0x0000, 0x0000, 0x0680, 0x0000, 0x0000, 0x02a0, 0x0008, 0x0000,
   0x0200, 0x0008, 0x0000, 0x0000, 0x001e, 0x0000, 0x8001, 0x001e, 0x0000,
   0x8000, 0x001f, 0x0000, 0x8000, 0x000c, 0x0018, 0xc000, 0x00f3, 0x0008,
   0x4400, 0x00cc, 0x0010, 0x0600, 0x0008, 0x0000, 0x0730, 0x0000, 0x0010,
   0x07e0, 0x2000, 0x0008, 0x0003, 0xc000, 0x000a, 0x0001, 0xe000, 0x000f,
   0x0201, 0xc000, 0x000f, 0x0000, 0xd000, 0x0008, 0x0000, 0x4000, 0x0001,
   0x0000, 0x7030, 0x0000, 0x0000, 0xb020, 0x0000, 0x0000, 0x30a0, 0x3000,
   0x0002, 0x1080, 0xf000, 0x0003, 0x0050, 0xf000, 0x0003, 0x0438, 0xf000,
   0x0083, 0x003c, 0xf000, 0x8b83, 0x007e, 0xf000, 0x9f00, 0x007f, 0x7400,
   0xfe00, 0x003f, 0x7000, 0xf000, 0xc007, 0x6c00, 0x2000, 0xc000, 0x2c01,
   0x2000, 0x8000, 0x3c05, 0x0000, 0x0000, 0x3c0b, 0x2000, 0x0000, 0x1c19,
   0x0000, 0x8000, 0x0814, 0x2000, 0x0000, 0x0c09, 0x8000, 0xa000, 0x0406,
   0x0000, 0xa000, 0x0103, 0x4800, 0xf800, 0x0081, 0x0800, 0xf849, 0x0081,
   0x7c00, 0xfe22, 0x0003, 0xf800, 0xff82, 0x0003, 0xf000, 0xffb7, 0x0003,
   0xe000, 0xffff, 0x0007, 0x0000, 0xffff, 0x0000, 0x0000, 0x1ff8, 0x0000 };
